<svg width="256" height="256" viewBox="0 0 256 256" fill="none" xmlns="http://www.w3.org/2000/svg">
  <defs>
    <linearGradient id="bg" x1="24" y1="20" x2="232" y2="236" gradientUnits="userSpaceOnUse">
      <stop offset="0" stop-color="#D946EF"/>
      <stop offset="0.52" stop-color="#F43F5E"/>
      <stop offset="1" stop-color="#FB923C"/>
    </linearGradient>
    <linearGradient id="shine" x1="74" y1="54" x2="196" y2="204" gradientUnits="userSpaceOnUse">
      <stop offset="0" stop-color="#FFFFFF"/>
      <stop offset="1" stop-color="#FFE4F1"/>
    </linearGradient>
    <filter id="shadow" x="0" y="0" width="256" height="256" filterUnits="userSpaceOnUse" color-interpolation-filters="sRGB">
      <feDropShadow dx="0" dy="14" stdDeviation="18" flood-color="#9F1239" flood-opacity="0.28"/>
    </filter>
  </defs>
  <rect x="18" y="18" width="220" height="220" rx="56" fill="url(#bg)" filter="url(#shadow)"/>
  <path d="M73 72C73 62.0589 81.0589 54 91 54H165C174.941 54 183 62.0589 183 72V78H162V75H94V181H162V151H183V184C183 193.941 174.941 202 165 202H91C81.0589 202 73 193.941 73 184V72Z" fill="url(#shine)"/>
  <path d="M116 92H194L181.5 114H139.5L131 129.5H172L159.5 151.5H119L91.5 202H64L116 92Z" fill="white"/>
  <path d="M191.5 56L198.8 73.2L216 80.5L198.8 87.8L191.5 105L184.2 87.8L167 80.5L184.2 73.2L191.5 56Z" fill="#FFF7ED"/>
  <path d="M57.5 153L63.1 166.4L76.5 172L63.1 177.6L57.5 191L51.9 177.6L38.5 172L51.9 166.4L57.5 153Z" fill="#FFF7ED" opacity="0.9"/>
</svg>
